<svg width="256" height="256" xmlns="http://www.w3.org/2000/svg">
  <!-- Main IC body, full height with 5px padding -->
  <rect x="45" y="5" width="166" height="246" rx="12" fill="#222222" stroke="#444444" stroke-width="4"/>
  <!-- Pins left (8 pins, spaced evenly) -->
  <rect x="25" y="20" width="20" height="12" rx="2" fill="#888888"/>
  <rect x="25" y="50" width="20" height="12" rx="2" fill="#888888"/>
  <rect x="25" y="80" width="20" height="12" rx="2" fill="#888888"/>
  <rect x="25" y="110" width="20" height="12" rx="2" fill="#888888"/>
  <rect x="25" y="140" width="20" height="12" rx="2" fill="#888888"/>
  <rect x="25" y="170" width="20" height="12" rx="2" fill="#888888"/>
  <rect x="25" y="200" width="20" height="12" rx="2" fill="#888888"/>
  <rect x="25" y="230" width="20" height="12" rx="2" fill="#888888"/>
  <!-- Pins right (8 pins, spaced evenly) -->
  <rect x="211" y="20" width="20" height="12" rx="2" fill="#888888"/>
  <rect x="211" y="50" width="20" height="12" rx="2" fill="#888888"/>
  <rect x="211" y="80" width="20" height="12" rx="2" fill="#888888"/>
  <rect x="211" y="110" width="20" height="12" rx="2" fill="#888888"/>
  <rect x="211" y="140" width="20" height="12" rx="2" fill="#888888"/>
  <rect x="211" y="170" width="20" height="12" rx="2" fill="#888888"/>
  <rect x="211" y="200" width="20" height="12" rx="2" fill="#888888"/>
  <rect x="211" y="230" width="20" height="12" rx="2" fill="#888888"/>
  <!-- Label -->
  <text x="128" y="128" font-size="40" font-family="Arial" fill="#ffffff" text-anchor="middle" alignment-baseline="middle">IC</text>
</svg>